<?xml version="1.0" standalone="no"?>
<!DOCTYPE svg PUBLIC "-//W3C//DTD SVG 20010904//EN"
 "http://www.w3.org/TR/2001/REC-SVG-20010904/DTD/svg10.dtd">
<svg version="1.0" xmlns="http://www.w3.org/2000/svg"
 width="300.000000pt" height="300.000000pt" viewBox="0 0 300.000000 300.000000"
 preserveAspectRatio="xMidYMid meet">
<metadata>
Created by potrace 1.11, written by Peter Selinger 2001-2013
</metadata>
<g transform="translate(0.000000,300.000000) scale(0.100000,-0.100000)"
fill="#000000" stroke="none">
<path d="M1345 2749 c-27 -4 -63 -10 -80 -13 -16 -3 -41 -8 -55 -11 -138 -27
-404 -157 -495 -241 -11 -11 -43 -39 -70 -64 -188 -168 -325 -415 -380 -680
-18 -88 -25 -313 -13 -400 38 -258 130 -466 290 -653 110 -130 265 -250 413
-321 76 -36 236 -91 295 -101 19 -3 53 -8 75 -12 80 -14 326 -8 415 11 504
105 886 483 991 981 7 33 14 67 16 75 8 36 10 262 2 328 -24 221 -123 458
-264 632 -197 244 -432 387 -750 457 -77 17 -311 24 -390 12z m380 -94 c362
-76 663 -304 826 -628 40 -79 93 -229 104 -295 44 -267 14 -509 -93 -733 -258
-544 -874 -806 -1442 -612 -281 96 -534 315 -667 578 -37 73 -79 177 -87 217
-3 13 -12 57 -22 98 -23 104 -23 328 -1 437 63 299 220 548 460 730 145 110
362 198 537 219 30 3 56 7 58 9 10 9 262 -6 327 -20z"/>
<path d="M1417 2468 c-186 -27 -352 -134 -451 -290 -121 -192 -132 -419 -29
-628 29 -58 58 -96 129 -167 l92 -92 26 -127 c27 -132 50 -184 93 -203 12 -6
111 -10 227 -10 l205 0 32 26 c41 35 52 63 79 209 22 115 25 122 57 144 56 38
147 143 180 206 129 250 94 525 -94 734 -131 146 -353 227 -546 198z m242 -99
c259 -83 424 -341 388 -606 -21 -148 -103 -280 -241 -388 -38 -30 -38 -31 -66
-175 -21 -102 -34 -148 -46 -157 -27 -19 -377 -18 -393 1 -7 8 -25 79 -40 157
l-29 144 -43 35 c-104 85 -178 182 -215 285 -12 34 -19 85 -21 160 -2 95 1
120 23 183 58 172 194 306 364 361 90 29 230 29 319 0z"/>
<path d="M1447 2290 c-45 -24 -67 -59 -69 -107 -3 -76 40 -116 140 -132 112
-18 183 -92 196 -206 8 -62 28 -92 78 -115 91 -40 184 31 173 133 -18 160 -87
280 -208 360 -104 69 -248 100 -310 67z m218 -106 c96 -45 175 -143 205 -254
23 -86 13 -130 -30 -130 -27 0 -39 15 -44 53 -19 153 -113 252 -265 278 -45 8
-62 16 -66 30 -9 27 3 57 23 61 32 7 125 -13 177 -38z"/>
<path d="M1270 869 c-67 -26 -84 -118 -31 -168 15 -14 35 -40 44 -57 40 -78
110 -108 236 -102 117 6 163 30 196 104 8 17 25 38 39 47 60 40 48 145 -20
173 -39 16 -423 19 -464 3z m438 -91 c2 -12 -6 -21 -23 -28 -14 -5 -28 -18
-31 -27 -29 -89 -50 -102 -165 -99 -93 2 -123 19 -136 73 -6 27 -17 42 -36 51
-25 12 -34 31 -22 44 3 3 97 5 208 4 183 -1 202 -3 205 -18z"/>
</g>
</svg>
